<?xml version="1.0" encoding="utf-8"?>
<!-- Generator: Adobe Illustrator 25.0.1, SVG Export Plug-In . SVG Version: 6.00 Build 0)  -->
<svg version="1.1" id="Layer_1" xmlns="http://www.w3.org/2000/svg" xmlns:xlink="http://www.w3.org/1999/xlink" x="0px" y="0px"
	 viewBox="0 0 277 277" style="enable-background:new 0 0 277 277;" xml:space="preserve">
<style type="text/css">
	.st0{fill-rule:evenodd;clip-rule:evenodd;fill:#FFFFFF;}
	.st1{fill-rule:evenodd;clip-rule:evenodd;fill:#81C1CC;}
	.st2{fill:#81C1CC;}
	.st3{fill:#FFFFFF;}
	.st4{opacity:0.5;}
</style>
<g id="Java_1_">
	<path id="XMLID_12_" class="st0" d="M180.63,87.64c-25.78,0-47.67,9.07-65.69,27.2c-18.12,18.02-27.18,39.93-27.18,65.72
		s9.06,47.65,27.18,65.56c6.65,6.78,13.85,12.3,21.61,16.56H23.76c-1.8-0.11-3.55-0.62-5.23-1.52c-2.81-1.35-4.22-4-4.22-7.94V23.78
		c0.22-2.03,0.67-3.77,1.35-5.24c1.46-2.82,4.17-4.22,8.1-4.22h229.47l1.52,0.34c1.35,0.23,2.53,0.56,3.55,1.01
		c2.93,1.35,4.39,4.05,4.39,8.11v112.87c-4.26-7.79-9.77-15.06-16.55-21.8C227.91,96.71,206.07,87.64,180.63,87.64z"/>
	<g>
		<path id="XMLID_9_" class="st1" d="M180.63,87.64c25.44,0,47.28,9.07,65.51,27.2c6.78,6.74,12.29,14,16.55,21.8V23.78
			c0-4.06-1.46-6.76-4.39-8.11c-1.01-0.45-2.2-0.79-3.55-1.01l-1.52-0.34H23.76c-3.94,0-6.64,1.41-8.1,4.22
			c-0.68,1.46-1.13,3.21-1.35,5.24v229.45c0,3.94,1.41,6.59,4.22,7.94c1.69,0.9,3.43,1.41,5.23,1.52h112.79
			c-7.76-4.26-14.96-9.78-21.61-16.56c-18.12-17.91-27.18-39.76-27.18-65.56s9.06-47.7,27.18-65.72
			C132.96,96.71,154.85,87.64,180.63,87.64z M259.32,3.84c2.48,0.45,4.39,1.07,5.74,1.86c5.63,2.7,8.44,7.6,8.44,14.7v160.18
			c0,25.68-9.12,47.54-27.36,65.56c-18.23,18.25-40.07,27.37-65.51,27.37H20.39c-2.7,0-5.52-0.67-8.44-2.03
			c-5.63-2.93-8.44-7.88-8.44-14.87V20.4c0-2.82,0.73-5.63,2.19-8.45C8.4,6.32,13.3,3.5,20.39,3.5h236.23L259.32,3.84z"/>
		<g>
			<path class="st2" d="M60.34,45.26c-5.5,0-9.82,1.95-12.97,5.85s-4.72,9.28-4.72,16.14c0,7.18,1.51,12.61,4.54,16.3
				s7.41,5.53,13.15,5.53c2.48,0,4.88-0.25,7.21-0.74c2.32-0.49,4.74-1.13,7.25-1.9v8.21c-4.59,1.74-9.8,2.6-15.62,2.6
				c-8.57,0-15.15-2.6-19.74-7.79s-6.89-12.62-6.89-22.28c0-6.09,1.11-11.41,3.34-15.98s5.45-8.06,9.67-10.49s9.17-3.64,14.85-3.64
				c5.98,0,11.5,1.25,16.58,3.76l-3.44,7.97c-1.98-0.93-4.06-1.75-6.27-2.46C65.09,45.61,62.77,45.26,60.34,45.26z"/>
			<path class="st2" d="M106.98,96.43l-1.49-4.89h-0.25c-1.69,2.14-3.4,3.59-5.11,4.36c-1.71,0.77-3.92,1.16-6.6,1.16
				c-3.45,0-6.14-0.93-8.08-2.79s-2.9-4.5-2.9-7.9c0-3.62,1.34-6.35,4.03-8.19c2.69-1.84,6.78-2.85,12.28-3.02l6.06-0.19V73.1
				c0-2.24-0.52-3.92-1.57-5.03s-2.67-1.67-4.87-1.67c-1.8,0-3.52,0.26-5.17,0.79s-3.24,1.15-4.76,1.87l-2.41-5.33
				c1.9-0.99,3.99-1.75,6.25-2.27s4.4-0.78,6.41-0.78c4.46,0,7.83,0.97,10.11,2.92c2.27,1.95,3.41,5,3.41,9.17v23.65L106.98,96.43
				L106.98,96.43z M95.87,91.35c2.71,0,4.88-0.76,6.52-2.27c1.64-1.51,2.46-3.63,2.46-6.36v-3.05l-4.51,0.19
				c-3.51,0.13-6.07,0.71-7.67,1.76s-2.4,2.65-2.4,4.81c0,1.57,0.46,2.78,1.4,3.63C92.61,90.92,94.01,91.35,95.87,91.35z"/>
		</g>
	</g>
	<g>
		<g>
			<g>
				<polygon class="st3" points="231.93,226.56 227.93,226.56 227.93,223.56 228.93,223.56 228.93,222.56 231.93,222.56 				"/>
			</g>
			<g>
				<path class="st3" d="M225.99,226.56h-4.85v-3h4.85V226.56z M219.2,226.56h-4.85v-3h4.85V226.56z M212.4,226.56h-4.85v-3h4.85
					V226.56z M205.6,226.56h-4.85v-3h4.85V226.56z M198.81,226.56h-4.85v-3h4.85V226.56z M192.01,226.56h-4.85v-3h4.85V226.56z
					 M185.22,226.56h-4.85v-3h4.85V226.56z M178.42,226.56h-4.85v-3h4.85V226.56z M171.62,226.56h-4.85v-3h4.85V226.56z
					 M164.83,226.56h-4.85v-3h4.85V226.56z M158.03,226.56h-4.85v-3h4.85V226.56z M151.24,226.56h-4.85v-3h4.85V226.56z
					 M144.44,226.56h-4.85v-3h4.85V226.56z"/>
			</g>
			<g>
				<polygon class="st3" points="137.64,226.56 133.64,226.56 133.64,222.56 136.64,222.56 136.64,223.56 137.64,223.56 				"/>
			</g>
			<g>
				<path class="st3" d="M136.64,220.57h-3v-4.96h3V220.57z M136.64,213.62h-3v-4.96h3V213.62z M136.64,206.67h-3v-4.96h3V206.67z
					 M136.64,199.72h-3v-4.96h3V199.72z M136.64,192.77h-3v-4.96h3V192.77z"/>
			</g>
			<g>
				<polygon class="st3" points="136.64,185.82 133.64,185.82 133.64,182.69 135.87,180.49 137.98,182.63 136.64,183.95 				"/>
			</g>
			<g>
				<path class="st3" d="M139.4,181.22l-2.11-2.13l3.57-3.53l2.11,2.13L139.4,181.22z M144.4,176.28l-2.11-2.13l3.57-3.53l2.11,2.13
					L144.4,176.28z M149.39,171.35l-2.11-2.13l3.57-3.53l2.11,2.13L149.39,171.35z M154.39,166.41l-2.11-2.13l3.57-3.53l2.11,2.13
					L154.39,166.41z M159.38,161.47l-2.11-2.13l3.56-3.53l2.11,2.13L159.38,161.47z M164.37,156.53l-2.11-2.13l3.56-3.53l2.11,2.13
					L164.37,156.53z M169.36,151.59l-2.11-2.13l3.56-3.53l2.11,2.13L169.36,151.59z M174.35,146.65l-2.11-2.13l3.56-3.53l2.11,2.13
					L174.35,146.65z M225.93,143.35h-5.02v-3h5.02V143.35z M218.91,143.35h-5.02v-3h5.02V143.35z M211.88,143.35h-5.02v-3h5.02
					V143.35z M204.86,143.35h-5.02v-3h5.02V143.35z M197.84,143.35h-5.02v-3h5.02V143.35z M190.82,143.35h-5.02v-3h5.02V143.35z
					 M183.8,143.35h-5.02v-3h5.02V143.35z"/>
			</g>
			<g>
				<polygon class="st3" points="231.93,144.35 228.93,144.35 228.93,143.35 227.93,143.35 227.93,140.35 231.93,140.35 				"/>
			</g>
			<g>
				<path class="st3" d="M231.93,220.58h-3v-4.95h3V220.58z M231.93,213.65h-3v-4.95h3V213.65z M231.93,206.72h-3v-4.95h3V206.72z
					 M231.93,199.79h-3v-4.95h3V199.79z M231.93,192.86h-3v-4.95h3V192.86z M231.93,185.93h-3v-4.95h3V185.93z M231.93,179h-3v-4.95
					h3V179z M231.93,172.07h-3v-4.95h3V172.07z M231.93,165.14h-3v-4.95h3V165.14z M231.93,158.21h-3v-4.95h3V158.21z
					 M231.93,151.28h-3v-4.95h3V151.28z"/>
			</g>
		</g>
		<g>
			<path class="st3" d="M214.51,193.23h-18.95c-0.83,0-1.5-0.67-1.5-1.5v-16.55c0-0.83,0.67-1.5,1.5-1.5h18.95
				c0.83,0,1.5,0.67,1.5,1.5v16.55C216.01,192.56,215.33,193.23,214.51,193.23z M197.06,190.23h15.95v-13.55h-15.95V190.23z"/>
		</g>
		<g>
			<rect x="203.93" y="182.5" class="st3" width="2.2" height="1.92"/>
			<path class="st3" d="M206.13,184.59h-2.2c-0.1,0-0.17-0.08-0.17-0.17v-1.92c0-0.1,0.08-0.17,0.17-0.17h2.2
				c0.1,0,0.17,0.08,0.17,0.17v1.92C206.3,184.51,206.23,184.59,206.13,184.59z M204.11,184.24h1.85v-1.57h-1.85V184.24z"/>
		</g>
		<g>
			<path class="st3" d="M127.15,194.81v-65.34h65.97L127.15,194.81z M132.15,134.47v48.35l48.82-48.35H132.15z"/>
		</g>
		<g>
			<path class="st3" d="M139.41,168.15v-23.32h23.54L139.41,168.15z M142.41,147.83v13.13l13.25-13.13H142.41z"/>
		</g>
		<g>
			<path class="st3" d="M140.91,138.96c-0.83,0-1.5-0.67-1.5-1.5v-5.77c0-0.83,0.67-1.5,1.5-1.5s1.5,0.67,1.5,1.5v5.77
				C142.41,138.29,141.74,138.96,140.91,138.96z"/>
		</g>
		<g>
			<path class="st3" d="M154.92,137.63c-0.55,0-1-0.45-1-1v-4.94c0-0.55,0.45-1,1-1s1,0.45,1,1v4.94
				C155.92,137.19,155.47,137.63,154.92,137.63z"/>
		</g>
		<g>
			<path class="st3" d="M162.33,136.49c-0.83,0-1.5-0.67-1.5-1.5v-2.47c0-0.83,0.67-1.5,1.5-1.5s1.5,0.67,1.5,1.5v2.47
				C163.83,135.82,163.16,136.49,162.33,136.49z"/>
		</g>
		<g>
			<path class="st3" d="M169.75,135.99c-0.55,0-1-0.45-1-1v-2.47c0-0.55,0.45-1,1-1s1,0.45,1,1v2.47
				C170.75,135.54,170.3,135.99,169.75,135.99z"/>
		</g>
		<g>
			<path class="st3" d="M147.5,136.81c-0.55,0-1-0.45-1-1v-3.3c0-0.55,0.45-1,1-1s1,0.45,1,1v3.3
				C148.5,136.36,148.05,136.81,147.5,136.81z"/>
		</g>
		<g>
			<path class="st3" d="M205.03,176.68c-0.83,0-1.5-0.67-1.5-1.5v-33.33c0-0.83,0.67-1.5,1.5-1.5s1.5,0.67,1.5,1.5v33.33
				C206.53,176.01,205.86,176.68,205.03,176.68z"/>
		</g>
		<g>
			<path class="st3" d="M205.03,226.11c-0.83,0-1.5-0.67-1.5-1.5V192.1c0-0.83,0.67-1.5,1.5-1.5s1.5,0.67,1.5,1.5v32.51
				C206.53,225.44,205.86,226.11,205.03,226.11z"/>
		</g>
		<g>
			<path class="st3" d="M195.56,184.96h-60.41c-0.83,0-1.5-0.67-1.5-1.5s0.67-1.5,1.5-1.5h60.41c0.83,0,1.5,0.67,1.5,1.5
				S196.39,184.96,195.56,184.96z"/>
		</g>
		<g>
			<path class="st3" d="M230.43,184.96H214.5c-0.83,0-1.5-0.67-1.5-1.5s0.67-1.5,1.5-1.5h15.93c0.83,0,1.5,0.67,1.5,1.5
				S231.26,184.96,230.43,184.96z"/>
		</g>
		<g class="st4">
			<polygon class="st3" points="204.89,225.06 135.14,225.06 135.14,183.46 195.56,183.46 195.56,191.28 204.89,191.73 			"/>
			<path class="st3" d="M204.89,226.06h-69.75c-0.55,0-1-0.45-1-1v-41.6c0-0.55,0.45-1,1-1h60.41c0.55,0,1,0.45,1,1v6.87l8.38,0.4
				c0.53,0.03,0.95,0.46,0.95,1v33.33C205.89,225.61,205.45,226.06,204.89,226.06z M136.14,224.06h67.75v-31.38l-8.38-0.4
				c-0.53-0.03-0.95-0.46-0.95-1v-6.83h-58.41L136.14,224.06L136.14,224.06z"/>
		</g>
	</g>
</g>
</svg>
