<?xml version="1.0" encoding="utf-8"?>
<!-- Generator: Adobe Illustrator 25.2.0, SVG Export Plug-In . SVG Version: 6.00 Build 0)  -->
<svg version="1.1" id="Aspose.Cad" xmlns="http://www.w3.org/2000/svg" xmlns:xlink="http://www.w3.org/1999/xlink" x="0px" y="0px"
	 viewBox="0 0 277 277" style="enable-background:new 0 0 277 277;" xml:space="preserve">
<style type="text/css">
	.st0{fill-rule:evenodd;clip-rule:evenodd;fill:#FFFFFF;}
	.st1{fill-rule:evenodd;clip-rule:evenodd;fill:#A4C547;}
	.st2{fill:#A4C547;}
	.st3{fill:none;stroke:#FFFFFF;stroke-width:3;stroke-miterlimit:10;}
	.st4{fill:none;stroke:#FFFFFF;stroke-width:3;stroke-miterlimit:10;stroke-dasharray:4.8543,1.9417;}
	.st5{fill:none;stroke:#FFFFFF;stroke-width:3;stroke-miterlimit:10;stroke-dasharray:4.9649,1.9859;}
	.st6{fill:none;stroke:#FFFFFF;stroke-width:3;stroke-miterlimit:10;stroke-dasharray:5.0156,2.0062;}
	.st7{fill:none;stroke:#FFFFFF;stroke-width:3;stroke-miterlimit:10;stroke-dasharray:4.9498,1.9799;}
	.st8{fill:none;stroke:#FFFFFF;stroke-width:3;stroke-linecap:round;stroke-linejoin:round;stroke-miterlimit:10;}
	.st9{fill:#FFFFFF;stroke:#FFFFFF;stroke-width:0.3479;stroke-linecap:round;stroke-linejoin:round;stroke-miterlimit:10;}
	.st10{fill:none;stroke:#FFFFFF;stroke-width:5;stroke-miterlimit:10;}
	.st11{fill:none;stroke:#FFFFFF;stroke-width:2;stroke-linecap:round;stroke-linejoin:round;stroke-miterlimit:10;}
	.st12{opacity:0.5;fill:#FFFFFF;stroke:#FFFFFF;stroke-width:2;stroke-linecap:round;stroke-linejoin:round;stroke-miterlimit:10;}
</style>
<g id="_x2E_NET">
	<path id="XMLID_8_" class="st0" d="M180.46,87.48c-25.78,0-47.67,9.07-65.69,27.2c-18.12,18.02-27.18,39.93-27.18,65.72
		s9.06,47.65,27.18,65.56c6.65,6.78,13.85,12.3,21.61,16.56H23.59c-1.8-0.11-3.55-0.62-5.23-1.52c-2.81-1.35-4.22-4-4.22-7.94V23.62
		c0.22-2.03,0.67-3.77,1.35-5.24c1.46-2.82,4.17-4.22,8.1-4.22h229.47l1.52,0.34c1.35,0.23,2.53,0.56,3.55,1.01
		c2.93,1.35,4.39,4.05,4.39,8.11v112.87c-4.26-7.79-9.77-15.06-16.55-21.79C227.74,96.55,205.9,87.48,180.46,87.48z"/>
	<g>
		<path id="XMLID_2_" class="st1" d="M180.46,87.48c25.44,0,47.28,9.07,65.51,27.2c6.78,6.74,12.29,14,16.55,21.79V23.62
			c0-4.06-1.46-6.76-4.39-8.11c-1.01-0.45-2.2-0.79-3.55-1.01l-1.52-0.34H23.59c-3.94,0-6.64,1.41-8.1,4.22
			c-0.68,1.46-1.13,3.21-1.35,5.24v229.45c0,3.94,1.41,6.59,4.22,7.94c1.69,0.9,3.43,1.41,5.23,1.52h112.79
			c-7.76-4.26-14.96-9.78-21.61-16.56c-18.12-17.91-27.18-39.76-27.18-65.56s9.06-47.7,27.18-65.72
			C132.78,96.55,154.68,87.48,180.46,87.48z M259.14,3.68c2.48,0.45,4.39,1.07,5.74,1.86c5.63,2.7,8.44,7.6,8.44,14.7v160.18
			c0,25.68-9.12,47.54-27.36,65.56c-18.23,18.25-40.07,27.37-65.51,27.37H20.21c-2.7,0-5.52-0.67-8.44-2.03
			c-5.63-2.93-8.44-7.88-8.44-14.87V20.24c0-2.82,0.73-5.63,2.19-8.45c2.7-5.63,7.6-8.45,14.69-8.45h236.23L259.14,3.68z"/>
		<g>
			<path class="st2" d="M60.17,45.1c-5.5,0-9.82,1.95-12.97,5.85c-3.15,3.9-4.72,9.28-4.72,16.14c0,7.18,1.51,12.61,4.54,16.3
				s7.41,5.53,13.15,5.53c2.48,0,4.88-0.25,7.21-0.74c2.32-0.49,4.74-1.13,7.25-1.9v8.21c-4.59,1.74-9.8,2.6-15.62,2.6
				c-8.57,0-15.15-2.6-19.74-7.79c-4.59-5.19-6.89-12.62-6.89-22.28c0-6.09,1.11-11.41,3.34-15.98s5.45-8.06,9.67-10.49
				c4.22-2.43,9.17-3.64,14.85-3.64c5.98,0,11.5,1.25,16.58,3.76l-3.44,7.97c-1.98-0.93-4.06-1.75-6.27-2.46
				C64.92,45.45,62.6,45.1,60.17,45.1z"/>
			<path class="st2" d="M106.8,96.27l-1.49-4.89h-0.25c-1.69,2.14-3.4,3.59-5.11,4.36c-1.71,0.77-3.92,1.16-6.6,1.16
				c-3.45,0-6.14-0.93-8.08-2.79c-1.94-1.86-2.9-4.5-2.9-7.9c0-3.62,1.34-6.35,4.03-8.19c2.69-1.84,6.78-2.85,12.28-3.02l6.06-0.19
				v-1.87c0-2.24-0.52-3.92-1.57-5.03c-1.05-1.11-2.67-1.67-4.87-1.67c-1.8,0-3.52,0.26-5.17,0.79c-1.65,0.53-3.24,1.15-4.76,1.87
				l-2.41-5.33c1.9-0.99,3.99-1.75,6.25-2.27c2.26-0.52,4.4-0.78,6.41-0.78c4.46,0,7.83,0.97,10.11,2.92c2.27,1.95,3.41,5,3.41,9.17
				v23.65H106.8z M95.7,91.19c2.71,0,4.88-0.76,6.52-2.27c1.64-1.51,2.46-3.63,2.46-6.36v-3.05l-4.51,0.19
				c-3.51,0.13-6.07,0.71-7.67,1.76c-1.6,1.05-2.4,2.65-2.4,4.81c0,1.57,0.46,2.78,1.4,3.63C92.44,90.76,93.83,91.19,95.7,91.19z"/>
		</g>
	</g>
	<g>
		<g>
			<g>
				<polyline class="st3" points="230.26,222.4 230.26,224.9 227.76,224.9 				"/>
				<line class="st4" x1="225.82" y1="224.9" x2="138.44" y2="224.9"/>
				<polyline class="st3" points="137.47,224.9 134.97,224.9 134.97,222.4 				"/>
				<line class="st5" x1="134.97" y1="220.41" x2="134.97" y2="186.65"/>
				<polyline class="st3" points="134.97,185.66 134.97,183.16 136.75,181.4 				"/>
				<polyline class="st6" points="138.18,179.99 160.07,158.36 176.89,141.69 226.76,141.69 				"/>
				<polyline class="st3" points="227.76,141.69 230.26,141.69 230.26,144.19 				"/>
				<line class="st7" x1="230.26" y1="146.17" x2="230.26" y2="221.41"/>
			</g>
		</g>
		<rect x="195.38" y="175.02" class="st8" width="18.95" height="16.55"/>
		<rect x="203.76" y="182.34" class="st9" width="2.2" height="1.92"/>
		<polygon class="st10" points="186.87,131.81 129.48,131.81 129.48,188.65 		"/>
		<polygon class="st3" points="159.14,146.18 140.74,146.18 140.74,164.4 		"/>
		<line class="st8" x1="140.74" y1="131.53" x2="140.74" y2="137.3"/>
		<line class="st11" x1="154.74" y1="131.53" x2="154.74" y2="136.48"/>
		<line class="st8" x1="162.16" y1="132.36" x2="162.16" y2="134.83"/>
		<line class="st11" x1="169.57" y1="132.36" x2="169.57" y2="134.83"/>
		<line class="st11" x1="147.33" y1="132.36" x2="147.33" y2="135.65"/>
		<line class="st8" x1="204.86" y1="175.02" x2="204.86" y2="141.69"/>
		<line class="st8" x1="204.86" y1="224.45" x2="204.86" y2="191.95"/>
		<line class="st8" x1="195.38" y1="183.3" x2="134.97" y2="183.3"/>
		<line class="st8" x1="214.33" y1="183.3" x2="230.26" y2="183.3"/>
		<polygon class="st12" points="204.72,224.9 134.97,224.9 134.97,183.3 195.38,183.3 195.39,191.12 204.72,191.57 		"/>
	</g>
</g>
<g>
</g>
<g>
</g>
<g>
</g>
<g>
</g>
<g>
</g>
<g>
</g>
</svg>
