<?xml version="1.0" encoding="utf-8"?>
<!-- Generator: Adobe Illustrator 25.2.0, SVG Export Plug-In . SVG Version: 6.00 Build 0)  -->
<svg version="1.1" id="Aspose.Cad" xmlns="http://www.w3.org/2000/svg" xmlns:xlink="http://www.w3.org/1999/xlink" x="0px" y="0px"
	 viewBox="0 0 277 277" style="enable-background:new 0 0 277 277;" xml:space="preserve">
<style type="text/css">
	.st0{fill-rule:evenodd;clip-rule:evenodd;fill:#FFFFFF;}
	.st1{fill-rule:evenodd;clip-rule:evenodd;fill:#22BAE6;}
	.st2{fill:#22BAE6;}
	.st3{fill:none;stroke:#FFFFFF;stroke-width:3;stroke-miterlimit:10;}
	.st4{fill:none;stroke:#FFFFFF;stroke-width:3;stroke-miterlimit:10;stroke-dasharray:4.8543,1.9417;}
	.st5{fill:none;stroke:#FFFFFF;stroke-width:3;stroke-miterlimit:10;stroke-dasharray:4.9649,1.9859;}
	.st6{fill:none;stroke:#FFFFFF;stroke-width:3;stroke-miterlimit:10;stroke-dasharray:5.0156,2.0062;}
	.st7{fill:none;stroke:#FFFFFF;stroke-width:3;stroke-miterlimit:10;stroke-dasharray:4.9498,1.9799;}
	.st8{fill:none;stroke:#FFFFFF;stroke-width:3;stroke-linecap:round;stroke-linejoin:round;stroke-miterlimit:10;}
	.st9{fill:#FFFFFF;stroke:#FFFFFF;stroke-width:0.3479;stroke-linecap:round;stroke-linejoin:round;stroke-miterlimit:10;}
	.st10{fill:none;stroke:#FFFFFF;stroke-width:5;stroke-miterlimit:10;}
	.st11{fill:none;stroke:#FFFFFF;stroke-width:2;stroke-linecap:round;stroke-linejoin:round;stroke-miterlimit:10;}
	
		.st12{opacity:0.5;fill:#FFFFFF;stroke:#FFFFFF;stroke-width:2;stroke-linecap:round;stroke-linejoin:round;stroke-miterlimit:10;enable-background:new    ;}
</style>
<g id="_x2E_NET">
	<path id="XMLID_8_" class="st0" d="M180.5,87.5c-25.8,0-47.7,9.1-65.7,27.2c-18.1,18-27.2,39.9-27.2,65.7s9.1,47.7,27.2,65.6
		c6.7,6.8,13.9,12.3,21.6,16.6H23.6c-1.8-0.1-3.5-0.6-5.2-1.5c-2.8-1.4-4.2-4-4.2-7.9V23.6c0.2-2,0.7-3.8,1.4-5.2
		c1.5-2.8,4.2-4.2,8.1-4.2h229.5l1.5,0.3c1.4,0.2,2.5,0.6,3.6,1c2.9,1.4,4.4,4,4.4,8.1v112.9c-4.3-7.8-9.8-15.1-16.6-21.8
		C227.7,96.6,205.9,87.5,180.5,87.5z"/>
	<g>
		<path id="XMLID_2_" class="st1" d="M180.5,87.5c25.4,0,47.3,9.1,65.5,27.2c6.8,6.7,12.3,14,16.5,21.8V23.6c0-4.1-1.5-6.8-4.4-8.1
			c-1-0.4-2.2-0.8-3.6-1l-1.5-0.3H23.6c-3.9,0-6.6,1.4-8.1,4.2c-0.7,1.5-1.1,3.2-1.4,5.2v229.4c0,3.9,1.4,6.6,4.2,7.9
			c1.7,0.9,3.4,1.4,5.2,1.5h112.8c-7.8-4.3-15-9.8-21.6-16.6c-18.1-17.9-27.2-39.8-27.2-65.6s9.1-47.7,27.2-65.7
			C132.8,96.6,154.7,87.5,180.5,87.5z M259.1,3.7c2.5,0.5,4.4,1.1,5.7,1.9c5.6,2.7,8.4,7.6,8.4,14.7v160.2
			c0,25.7-9.1,47.5-27.4,65.6c-18.2,18.2-40.1,27.4-65.5,27.4H20.2c-2.7,0-5.5-0.7-8.4-2c-5.6-2.9-8.4-7.9-8.4-14.9V20.2
			c0-2.8,0.7-5.6,2.2-8.4c2.7-5.6,7.6-8.4,14.7-8.4h236.2L259.1,3.7z"/>
		<g>
			<path class="st2" d="M60.2,45.1c-5.5,0-9.8,2-13,5.8s-4.7,9.3-4.7,16.1c0,7.2,1.5,12.6,4.5,16.3s7.4,5.5,13.2,5.5
				c2.5,0,4.9-0.2,7.2-0.7c2.3-0.5,4.7-1.1,7.2-1.9v8.2c-4.6,1.7-9.8,2.6-15.6,2.6c-8.6,0-15.1-2.6-19.7-7.8S32.4,76.7,32.4,67
				c0-6.1,1.1-11.4,3.3-16s5.5-8.1,9.7-10.5s9.2-3.6,14.8-3.6c6,0,11.5,1.2,16.6,3.8l-3.4,8c-2-0.9-4.1-1.8-6.3-2.5
				C64.9,45.5,62.6,45.1,60.2,45.1z"/>
			<path class="st2" d="M106.8,96.3l-1.5-4.9h-0.2c-1.7,2.1-3.4,3.6-5.1,4.4c-1.7,0.8-3.9,1.2-6.6,1.2c-3.4,0-6.1-0.9-8.1-2.8
				s-2.9-4.5-2.9-7.9c0-3.6,1.3-6.3,4-8.2c2.7-1.8,6.8-2.8,12.3-3l6.1-0.2v-1.9c0-2.2-0.5-3.9-1.6-5s-2.7-1.7-4.9-1.7
				c-1.8,0-3.5,0.3-5.2,0.8s-3.2,1.2-4.8,1.9L86,63.6c1.9-1,4-1.8,6.2-2.3s4.4-0.8,6.4-0.8c4.5,0,7.8,1,10.1,2.9
				c2.3,1.9,3.4,5,3.4,9.2v23.7L106.8,96.3L106.8,96.3z M95.7,91.2c2.7,0,4.9-0.8,6.5-2.3c1.6-1.5,2.5-3.6,2.5-6.4v-3.1l-4.5,0.2
				c-3.5,0.1-6.1,0.7-7.7,1.8s-2.4,2.7-2.4,4.8c0,1.6,0.5,2.8,1.4,3.6C92.4,90.8,93.8,91.2,95.7,91.2z"/>
		</g>
	</g>
	<g>
		<g>
			<g>
				<polyline class="st3" points="230.3,222.4 230.3,224.9 227.8,224.9 				"/>
				<line class="st4" x1="225.8" y1="224.9" x2="138.4" y2="224.9"/>
				<polyline class="st3" points="137.5,224.9 135,224.9 135,222.4 				"/>
				<line class="st5" x1="135" y1="220.4" x2="135" y2="186.6"/>
				<polyline class="st3" points="135,185.7 135,183.2 136.8,181.4 				"/>
				<polyline class="st6" points="138.2,180 160.1,158.4 176.9,141.7 226.8,141.7 				"/>
				<polyline class="st3" points="227.8,141.7 230.3,141.7 230.3,144.2 				"/>
				<line class="st7" x1="230.3" y1="146.2" x2="230.3" y2="221.4"/>
			</g>
		</g>
		<rect x="195.4" y="175" class="st8" width="18.9" height="16.6"/>
		<rect x="203.8" y="182.3" class="st9" width="2.2" height="1.9"/>
		<polygon class="st10" points="186.9,131.8 129.5,131.8 129.5,188.6 		"/>
		<polygon class="st3" points="159.1,146.2 140.7,146.2 140.7,164.4 		"/>
		<line class="st8" x1="140.7" y1="131.5" x2="140.7" y2="137.3"/>
		<line class="st11" x1="154.7" y1="131.5" x2="154.7" y2="136.5"/>
		<line class="st8" x1="162.2" y1="132.4" x2="162.2" y2="134.8"/>
		<line class="st11" x1="169.6" y1="132.4" x2="169.6" y2="134.8"/>
		<line class="st11" x1="147.3" y1="132.4" x2="147.3" y2="135.6"/>
		<line class="st8" x1="204.9" y1="175" x2="204.9" y2="141.7"/>
		<line class="st8" x1="204.9" y1="224.4" x2="204.9" y2="191.9"/>
		<line class="st8" x1="195.4" y1="183.3" x2="135" y2="183.3"/>
		<line class="st8" x1="214.3" y1="183.3" x2="230.3" y2="183.3"/>
		<polygon class="st12" points="204.7,224.9 135,224.9 135,183.3 195.4,183.3 195.4,191.1 204.7,191.6 		"/>
	</g>
</g>
</svg>
