<svg xmlns="http://www.w3.org/2000/svg" xmlns:xlink="http://www.w3.org/1999/xlink" version="1.1" width="1000" height="1000" viewBox="0 0 1000 1000" xml:space="preserve">
<desc>Created with Fabric.js 3.5.0</desc>
<defs>
</defs>
<rect x="0" y="0" width="100%" height="100%" fill="rgba(255,255,255,0)"/>
<g transform="matrix(2.7137 0 0 2.7137 383.3757 674.8987)" id="Aspose.CAD">
<polygon style="stroke: none; stroke-width: 0; stroke-dasharray: none; stroke-linecap: butt; stroke-dashoffset: 0; stroke-linejoin: miter; stroke-miterlimit: 4; is-custom-font: none; font-file-url: none; fill: rgb(238,238,238); fill-rule: nonzero; opacity: 1;" points="56.475,77.285 -56.475,69.285 -56.475,-77.285 56.475,-77.285 "/>
</g>
<g transform="matrix(2.7137 0 0 2.7137 645.9805 674.8987)" id="Aspose.CAD">
<polygon style="stroke: none; stroke-width: 0; stroke-dasharray: none; stroke-linecap: butt; stroke-dashoffset: 0; stroke-linejoin: miter; stroke-miterlimit: 4; is-custom-font: none; font-file-url: none; fill: rgb(238,238,238); fill-rule: nonzero; opacity: 1;" points="-34.295,77.285 34.295,69.285 34.295,-77.285 -34.295,-77.285 "/>
</g>
<g transform="matrix(2.7137 0 0 2.7137 806.2061 584.5344)" id="lines_12_">
<polyline style="stroke: rgb(238,238,238); stroke-width: 3; stroke-dasharray: 6 8; stroke-linecap: round; stroke-dashoffset: 0; stroke-linejoin: round; stroke-miterlimit: 10; is-custom-font: none; font-file-url: none; fill: none; fill-rule: nonzero; opacity: 1;" points="37.335,-21.555 -13.365,-21.555 -13.365,21.555 -37.335,21.555 "/>
</g>
<g transform="matrix(2.7137 0 0 2.7137 687.5951 388.4541)" id="lines_12_">
<polyline style="stroke: rgb(238,238,238); stroke-width: 3; stroke-dasharray: 6 8; stroke-linecap: round; stroke-dashoffset: 0; stroke-linejoin: round; stroke-miterlimit: 10; is-custom-font: none; font-file-url: none; fill: none; fill-rule: nonzero; opacity: 1;" points="32.61,-24.24 32.61,10.47 -32.61,10.47 -32.61,24.24 "/>
</g>
<g transform="matrix(2.7137 0 0 2.7137 415.0311 302.05)" id="lines_12_">
<line style="stroke: rgb(238,238,238); stroke-width: 3; stroke-dasharray: none; stroke-linecap: round; stroke-dashoffset: 0; stroke-linejoin: round; stroke-miterlimit: 4; is-custom-font: none; font-file-url: none; fill: none; fill-rule: nonzero; opacity: 1;" x1="1.5" y1="0" x2="-1.5" y2="0"/>
</g>
<g transform="matrix(2.7137 0 0 2.7137 351.8833 302.05)" id="lines_12_">
<line style="stroke: rgb(238,238,238); stroke-width: 3; stroke-dasharray: 6.5303 8.7071; stroke-linecap: round; stroke-dashoffset: 0; stroke-linejoin: round; stroke-miterlimit: 4; is-custom-font: none; font-file-url: none; fill: none; fill-rule: nonzero; opacity: 1;" x1="13.059999999999999" y1="0" x2="-13.059999999999999" y2="0"/>
</g>
<g transform="matrix(2.7137 0 0 2.7137 300.5401 306.1205)" id="lines_12_">
<polyline style="stroke: rgb(238,238,238); stroke-width: 3; stroke-dasharray: none; stroke-linecap: round; stroke-dashoffset: 0; stroke-linejoin: round; stroke-miterlimit: 4; is-custom-font: none; font-file-url: none; fill: none; fill-rule: nonzero; opacity: 1;" points="1.5,-1.5 -1.5,-1.5 -1.5,1.5 "/>
</g>
<g transform="matrix(2.7137 0 0 2.7137 296.4696 379.716)" id="lines_12_">
<line style="stroke: rgb(238,238,238); stroke-width: 3; stroke-dasharray: 5.6936 7.5915; stroke-linecap: round; stroke-dashoffset: 0; stroke-linejoin: round; stroke-miterlimit: 4; is-custom-font: none; font-file-url: none; fill: none; fill-rule: nonzero; opacity: 1;" x1="0" y1="-18.03" x2="0" y2="18.03"/>
</g>
<g transform="matrix(2.7137 0 0 2.7137 296.4696 443.0266)" id="lines_12_">
<line style="stroke: rgb(238,238,238); stroke-width: 3; stroke-dasharray: none; stroke-linecap: round; stroke-dashoffset: 0; stroke-linejoin: round; stroke-miterlimit: 4; is-custom-font: none; font-file-url: none; fill: none; fill-rule: nonzero; opacity: 1;" x1="0" y1="-1.5" x2="0" y2="1.5"/>
</g>
<g transform="matrix(2.7137 0 0 2.7137 774.2979 249.6213)" id="circles_12_">
<circle style="stroke: none; stroke-width: 0; stroke-dasharray: none; stroke-linecap: butt; stroke-dashoffset: 0; stroke-linejoin: miter; stroke-miterlimit: 4; is-custom-font: none; font-file-url: none; fill: rgb(222,68,68); fill-rule: nonzero; opacity: 1;" cx="0" cy="0" r="33.61"/>
</g>
<g transform="matrix(2.7137 0 0 2.7137 773.8502 216.439)" id="XMLID_105_">
<path style="stroke: none; stroke-width: 0; stroke-dasharray: none; stroke-linecap: butt; stroke-dashoffset: 0; stroke-linejoin: miter; stroke-miterlimit: 4; is-custom-font: none; font-file-url: none; fill: rgb(255,255,255); fill-rule: nonzero; opacity: 1;" transform=" translate(-232.8751, -23.1123)" d="M 232.9 19.69 c -1.81 1.27 -3.86 2.72 -4.96 5.11 c -1.91 4.17 3.91 8.71 4.16 8.91 c 0.06 0.04 0.13 0.07 0.2 0.07 c 0.07 0 0.15 -0.03 0.21 -0.07 c 0.12 -0.1 0.15 -0.26 0.08 -0.39 c -0.02 -0.04 -2.11 -4.1 -2.03 -7.01 c 0.03 -1.01 1.45 -2.16 2.95 -3.38 c 1.38 -1.12 2.94 -2.38 3.85 -3.86 c 2 -3.26 -0.22 -6.46 -0.25 -6.49 c -0.09 -0.12 -0.25 -0.17 -0.39 -0.11 s -0.22 0.21 -0.18 0.36 c 0 0.02 0.44 2.14 -0.77 4.32 C 235.25 18.04 234.16 18.8 232.9 19.69 z" stroke-linecap="round"/>
</g>
<g transform="matrix(2.7137 0 0 2.7137 784.1502 229.3806)" id="XMLID_104_">
<path style="stroke: none; stroke-width: 0; stroke-dasharray: none; stroke-linecap: butt; stroke-dashoffset: 0; stroke-linejoin: miter; stroke-miterlimit: 4; is-custom-font: none; font-file-url: none; fill: rgb(255,255,255); fill-rule: nonzero; opacity: 1;" transform=" translate(-236.6706, -27.8813)" d="M 240.53 21.13 c 0.13 -0.1 0.17 -0.27 0.09 -0.41 s -0.25 -0.2 -0.4 -0.15 c -0.31 0.12 -7.54 2.9 -7.54 6.27 c 0 2.32 0.99 3.55 1.71 4.44 c 0.28 0.35 0.53 0.65 0.61 0.91 c 0.23 0.75 -0.31 2.09 -0.54 2.55 c -0.07 0.13 -0.03 0.29 0.08 0.39 c 0.06 0.05 0.13 0.08 0.21 0.08 c 0.06 0 0.13 -0.02 0.18 -0.06 c 0.12 -0.09 3.04 -2.15 2.51 -4.63 c -0.19 -0.94 -0.66 -1.63 -1.07 -2.24 c -0.63 -0.94 -1.09 -1.62 -0.4 -2.88 C 236.81 23.94 240.5 21.16 240.53 21.13 z" stroke-linecap="round"/>
</g>
<g transform="matrix(2.7137 0 0 2.7137 769.7184 250.907)" id="XMLID_103_">
<path style="stroke: none; stroke-width: 0; stroke-dasharray: none; stroke-linecap: butt; stroke-dashoffset: 0; stroke-linejoin: miter; stroke-miterlimit: 4; is-custom-font: none; font-file-url: none; fill: rgb(255,255,255); fill-rule: nonzero; opacity: 1;" transform=" translate(-231.3525, -35.8139)" d="M 221.72 35.26 c -0.12 0.37 -0.07 0.74 0.17 1.06 c 0.78 1.09 3.56 1.69 7.81 1.69 l 0 0 c 0.58 0 1.19 -0.01 1.81 -0.03 c 6.8 -0.24 9.33 -2.36 9.43 -2.45 c 0.11 -0.1 0.14 -0.26 0.07 -0.39 c -0.07 -0.13 -0.22 -0.2 -0.37 -0.16 c -2.4 0.65 -6.87 0.89 -9.98 0.89 c -3.47 0 -5.24 -0.25 -5.67 -0.43 c 0.22 -0.31 1.59 -0.85 3.29 -1.18 c 0.16 -0.03 0.27 -0.18 0.26 -0.35 c -0.02 -0.16 -0.15 -0.29 -0.32 -0.29 C 227.23 33.6 222.24 33.68 221.72 35.26 z" stroke-linecap="round"/>
</g>
<g transform="matrix(2.7137 0 0 2.7137 804.8492 254.6959)" id="XMLID_102_">
<path style="stroke: none; stroke-width: 0; stroke-dasharray: none; stroke-linecap: butt; stroke-dashoffset: 0; stroke-linejoin: miter; stroke-miterlimit: 4; is-custom-font: none; font-file-url: none; fill: rgb(255,255,255); fill-rule: nonzero; opacity: 1;" transform=" translate(-244.2982, -37.21)" d="M 244.49 33.08 c -1.4 0 -2.73 0.7 -2.79 0.73 c -0.13 0.07 -0.2 0.22 -0.16 0.36 s 0.16 0.24 0.31 0.24 c 0.03 0 2.99 0.02 3.26 1.72 c 0.24 1.46 -2.8 3.83 -4 4.62 c -0.13 0.09 -0.18 0.25 -0.12 0.39 c 0.05 0.12 0.17 0.2 0.3 0.2 c 0.02 0 0.04 0 0.07 -0.01 c 0.28 -0.06 6.92 -1.52 6.22 -5.39 C 247.15 33.58 245.66 33.08 244.49 33.08 z" stroke-linecap="round"/>
</g>
<g transform="matrix(2.7137 0 0 2.7137 771.9385 262.1602)" id="XMLID_101_">
<path style="stroke: none; stroke-width: 0; stroke-dasharray: none; stroke-linecap: butt; stroke-dashoffset: 0; stroke-linejoin: miter; stroke-miterlimit: 4; is-custom-font: none; font-file-url: none; fill: rgb(255,255,255); fill-rule: nonzero; opacity: 1;" transform=" translate(-232.1706, -39.9606)" d="M 239.94 40.28 c 0.02 -0.12 -0.03 -0.25 -0.13 -0.32 l -1.59 -1.11 c -0.08 -0.05 -0.18 -0.07 -0.27 -0.05 c -0.02 0 -1.68 0.44 -4.1 0.71 c -0.96 0.11 -2.03 0.16 -3.11 0.16 c -2.42 0 -4 -0.28 -4.23 -0.49 c -0.03 -0.06 -0.02 -0.09 -0.02 -0.1 c 0.04 -0.12 0.27 -0.25 0.41 -0.31 c 0.16 -0.06 0.25 -0.23 0.2 -0.39 s -0.22 -0.26 -0.38 -0.22 c -1.6 0.39 -2.38 0.92 -2.32 1.6 c 0.1 1.2 2.88 1.82 5.23 1.98 c 0.34 0.02 0.7 0.03 1.09 0.03 l 0 0 c 3.91 0 8.92 -1.23 8.97 -1.24 C 239.82 40.5 239.91 40.4 239.94 40.28 z" stroke-linecap="round"/>
</g>
<g transform="matrix(2.7137 0 0 2.7137 772.5779 273.5018)" id="XMLID_100_">
<path style="stroke: none; stroke-width: 0; stroke-dasharray: none; stroke-linecap: butt; stroke-dashoffset: 0; stroke-linejoin: miter; stroke-miterlimit: 4; is-custom-font: none; font-file-url: none; fill: rgb(255,255,255); fill-rule: nonzero; opacity: 1;" transform=" translate(-232.4063, -44.14)" d="M 227.93 42.86 c 0.12 -0.08 0.17 -0.23 0.13 -0.36 c -0.04 -0.14 -0.17 -0.23 -0.32 -0.23 c -0.21 0.01 -2.09 0.09 -2.23 1.29 c -0.04 0.36 0.06 0.68 0.3 0.97 c 0.68 0.8 2.5 1.28 5.57 1.45 c 0.36 0.02 0.73 0.03 1.1 0.03 c 3.91 0 6.54 -1.22 6.65 -1.27 s 0.18 -0.16 0.18 -0.27 c 0.01 -0.12 -0.05 -0.23 -0.15 -0.29 l -2.01 -1.23 c -0.07 -0.04 -0.15 -0.06 -0.23 -0.04 c -0.01 0 -1.29 0.27 -3.22 0.53 c -0.36 0.05 -0.82 0.07 -1.36 0.07 c -1.93 0 -4.07 -0.31 -4.48 -0.52 C 227.87 42.95 227.88 42.9 227.93 42.86 z" stroke-linecap="round"/>
</g>
<g transform="matrix(2.7137 0 0 2.7137 771.7983 282.2368)" id="XMLID_99_">
<path style="stroke: none; stroke-width: 0; stroke-dasharray: none; stroke-linecap: butt; stroke-dashoffset: 0; stroke-linejoin: miter; stroke-miterlimit: 4; is-custom-font: none; font-file-url: none; fill: rgb(255,255,255); fill-rule: nonzero; opacity: 1;" transform=" translate(-232.119, -47.3588)" d="M 230.68 49.7 c 8.95 -0.01 13.75 -1.6 14.67 -2.6 c 0.33 -0.35 0.36 -0.69 0.33 -0.91 c -0.07 -0.54 -0.56 -0.87 -0.62 -0.9 c -0.13 -0.09 -0.31 -0.06 -0.42 0.06 c -0.1 0.12 -0.11 0.3 0 0.42 c 0.06 0.07 0.09 0.19 -0.08 0.36 c -0.37 0.35 -4.1 1.39 -10.31 1.71 c -0.85 0.04 -1.74 0.07 -2.65 0.07 c -5.56 0 -9.63 -0.76 -10.16 -1.21 c 0.21 -0.3 1.65 -0.77 3.18 -1.04 c 0.17 -0.03 0.29 -0.19 0.26 -0.37 s -0.19 -0.29 -0.36 -0.27 c -0.04 0.01 -0.19 0.01 -0.36 0.03 c -2.53 0.15 -5.44 0.5 -5.6 1.8 c -0.05 0.4 0.07 0.76 0.35 1.07 C 219.6 48.68 221.56 49.7 230.68 49.7 L 230.68 49.7 z" stroke-linecap="round"/>
</g>
<g transform="matrix(2.7137 0 0 2.7137 781.5819 288.0461)" id="XMLID_98_">
<path style="stroke: none; stroke-width: 0; stroke-dasharray: none; stroke-linecap: butt; stroke-dashoffset: 0; stroke-linejoin: miter; stroke-miterlimit: 4; is-custom-font: none; font-file-url: none; fill: rgb(255,255,255); fill-rule: nonzero; opacity: 1;" transform=" translate(-235.7242, -49.4996)" d="M 247.11 47.39 c -0.13 -0.06 -0.28 -0.03 -0.37 0.07 c -0.01 0.01 -1.36 1.42 -5.4 2.25 c -1.55 0.31 -4.45 0.47 -8.64 0.47 s -8.18 -0.16 -8.22 -0.17 c -0.17 -0.01 -0.31 0.11 -0.33 0.28 c -0.02 0.16 0.08 0.32 0.24 0.36 c 0.04 0.01 4.22 0.99 9.94 0.99 c 2.74 0 5.41 -0.22 7.93 -0.66 c 4.7 -0.82 5.03 -3.15 5.04 -3.25 C 247.31 47.58 247.23 47.44 247.11 47.39 z" stroke-linecap="round"/>
</g>
<g transform="matrix(2.7137 0 0 2.7137 455.6823 303.1354)" id="circles_12_">
<circle style="stroke: none; stroke-width: 0; stroke-dasharray: none; stroke-linecap: butt; stroke-dashoffset: 0; stroke-linejoin: miter; stroke-miterlimit: 4; is-custom-font: none; font-file-url: none; fill: rgb(104,33,122); fill-rule: nonzero; opacity: 1;" cx="0" cy="0" r="33.61"/>
</g>
<g transform="matrix(2.7137 0 0 2.7137 452.1409 300.8966)" id="NET_12_">
<path style="stroke: none; stroke-width: 0; stroke-dasharray: none; stroke-linecap: butt; stroke-dashoffset: 0; stroke-linejoin: miter; stroke-miterlimit: 4; is-custom-font: none; font-file-url: none; fill: rgb(255,255,255); fill-rule: nonzero; opacity: 1;" transform=" translate(-114.325, -54.235)" d="M 124.9 52.03 h 4.7 V 66.6 h 1.91 V 52.03 h 4.7 V 50.3 H 124.9 V 52.03 z M 116.37 59.18 h 5.89 v -1.73 h -5.89 v -5.42 h 6.36 V 50.3 h -8.27 v 16.3 h 8.64 v -1.73 h -6.72 L 116.37 59.18 L 116.37 59.18 z M 108.95 61.79 l 0.11 2.4 h -0.05 c -0.11 -0.22 -0.34 -0.58 -0.66 -1.09 l -8.16 -12.79 h -2.48 v 16.3 h 1.91 V 54.83 l -0.09 -2.24 h 0.07 c 0.14 0.37 0.31 0.71 0.51 1.02 l 8.41 12.99 h 2.32 V 50.3 h -1.9 L 108.95 61.79 L 108.95 61.79 z M 93.66 64.3 c -0.35 0 -0.64 0.12 -0.89 0.38 c -0.24 0.25 -0.36 0.55 -0.36 0.91 c 0 0.34 0.13 0.66 0.36 0.9 c 0.24 0.25 0.54 0.38 0.89 0.38 c 0.36 0 0.66 -0.13 0.91 -0.38 s 0.38 -0.56 0.38 -0.91 s -0.13 -0.65 -0.38 -0.91 c -0.24 -0.25 -0.57 -0.39 -0.91 -0.38 M 131.53 47.04 c 0 0.87 0.39 1.31 1.16 1.31 c 0.28 0 0.5 -0.05 0.67 -0.14 V 47.6 c -0.13 0.1 -0.3 0.15 -0.46 0.14 c -0.24 0 -0.4 -0.06 -0.51 -0.19 c -0.1 -0.12 -0.15 -0.34 -0.15 -0.63 v -2.5 h 1.12 v -0.6 h -1.11 v -1.31 l -0.71 0.23 v 1.08 h -0.76 v 0.6 h 0.76 v 2.63 L 131.53 47.04 z M 128.63 48.25 h 0.71 v -3.83 h 1.04 v -0.6 h -1.04 v -0.68 c 0 -0.63 0.25 -0.94 0.74 -0.94 c 0.16 0 0.33 0.04 0.47 0.12 v -0.64 c -0.13 -0.06 -0.3 -0.08 -0.52 -0.08 c -0.38 0 -0.7 0.11 -0.96 0.36 c -0.3 0.28 -0.45 0.66 -0.45 1.15 v 0.72 h -0.75 v 0.6 h 0.75 v 3.84 L 128.63 48.25 z M 123.78 46.05 c 0 -0.57 0.14 -1 0.42 -1.31 c 0.27 -0.29 0.62 -0.43 1.06 -0.43 c 0.45 0 0.8 0.14 1.05 0.43 c 0.26 0.3 0.39 0.73 0.39 1.3 c 0 0.54 -0.11 0.97 -0.36 1.26 c -0.24 0.3 -0.6 0.45 -1.07 0.45 c -0.45 0 -0.81 -0.15 -1.08 -0.45 C 123.91 47 123.78 46.58 123.78 46.05 M 126.82 47.71 c 0.4 -0.43 0.6 -0.99 0.6 -1.7 c 0 -0.72 -0.19 -1.28 -0.56 -1.7 c -0.37 -0.41 -0.89 -0.61 -1.55 -0.61 c -0.67 0 -1.21 0.2 -1.61 0.59 c -0.43 0.42 -0.65 1.02 -0.65 1.79 c 0 0.68 0.19 1.22 0.57 1.63 c 0.39 0.43 0.92 0.64 1.59 0.64 C 125.89 48.35 126.43 48.14 126.82 47.71 M 121.94 47.96 c 0.27 -0.22 0.42 -0.56 0.41 -0.9 c 0 -0.33 -0.11 -0.6 -0.33 -0.81 c -0.17 -0.17 -0.44 -0.33 -0.82 -0.49 c -0.34 -0.14 -0.56 -0.27 -0.67 -0.37 c -0.12 -0.11 -0.18 -0.26 -0.18 -0.46 c 0 -0.18 0.07 -0.33 0.21 -0.45 s 0.33 -0.17 0.57 -0.17 c 0.38 0 0.71 0.11 1.01 0.32 v -0.72 c -0.28 -0.14 -0.6 -0.21 -0.95 -0.21 c -0.45 0 -0.84 0.12 -1.13 0.37 s -0.44 0.55 -0.44 0.92 c 0 0.33 0.09 0.6 0.28 0.8 c 0.16 0.17 0.42 0.34 0.79 0.5 c 0.36 0.16 0.6 0.29 0.73 0.41 s 0.19 0.26 0.19 0.43 c 0 0.41 -0.28 0.62 -0.85 0.62 c -0.42 0 -0.81 -0.14 -1.15 -0.43 v 0.76 c 0.31 0.18 0.68 0.27 1.1 0.27 C 121.23 48.35 121.64 48.22 121.94 47.96 M 115.6 44.74 c 0.26 -0.29 0.63 -0.43 1.06 -0.43 c 0.45 0 0.8 0.14 1.05 0.43 c 0.26 0.3 0.38 0.73 0.38 1.3 c 0 0.54 -0.11 0.97 -0.36 1.26 c -0.24 0.3 -0.6 0.45 -1.07 0.45 c -0.45 0 -0.81 -0.15 -1.08 -0.45 s -0.4 -0.71 -0.4 -1.25 C 115.19 45.48 115.33 45.04 115.6 44.74 M 116.62 48.35 c 0.68 0 1.21 -0.21 1.61 -0.64 s 0.6 -0.99 0.6 -1.7 c 0 -0.72 -0.19 -1.28 -0.56 -1.7 c -0.37 -0.41 -0.89 -0.61 -1.55 -0.61 c -0.67 0 -1.21 0.2 -1.61 0.59 c -0.43 0.42 -0.65 1.02 -0.65 1.79 c 0 0.68 0.19 1.22 0.57 1.63 C 115.42 48.13 115.95 48.35 116.62 48.35 M 113.04 43.97 c -0.22 0.17 -0.38 0.43 -0.48 0.75 h -0.02 V 43.8 h -0.71 v 4.44 h 0.71 v -2.25 c 0 -0.52 0.11 -0.92 0.33 -1.21 c 0.2 -0.26 0.44 -0.39 0.73 -0.39 c 0.24 0 0.42 0.05 0.54 0.14 v -0.74 c -0.1 -0.04 -0.24 -0.06 -0.43 -0.06 C 113.47 43.74 113.24 43.82 113.04 43.97 M 109.54 48.35 c 0.47 0 0.88 -0.1 1.22 -0.31 v -0.67 c -0.34 0.25 -0.7 0.38 -1.09 0.38 c -0.45 0 -0.82 -0.15 -1.1 -0.45 c -0.27 -0.3 -0.41 -0.71 -0.41 -1.23 c 0 -0.54 0.15 -0.97 0.45 -1.29 c 0.28 -0.31 0.65 -0.47 1.1 -0.47 c 0.38 0 0.75 0.12 1.06 0.35 v -0.73 c -0.3 -0.15 -0.64 -0.23 -1.03 -0.23 c -0.7 0 -1.27 0.22 -1.68 0.67 s -0.63 1.04 -0.63 1.76 c 0 0.65 0.19 1.18 0.57 1.59 C 108.39 48.15 108.91 48.36 109.54 48.35 M 105.61 48.26 h 0.71 v -4.44 h -0.71 V 48.26 L 105.61 48.26 z M 105.97 42.69 c 0.12 0 0.24 -0.05 0.33 -0.14 c 0.09 -0.09 0.14 -0.21 0.14 -0.33 c 0 -0.12 -0.05 -0.24 -0.14 -0.33 s -0.21 -0.13 -0.33 -0.13 c -0.13 0 -0.24 0.04 -0.33 0.13 c -0.09 0.09 -0.14 0.2 -0.14 0.33 c 0 0.14 0.05 0.25 0.14 0.33 C 105.73 42.65 105.85 42.69 105.97 42.69 M 98.43 44.09 l -0.03 -1.21 h 0.02 c 0.06 0.29 0.13 0.5 0.19 0.64 l 2.12 4.74 h 0.36 l 2.13 -4.78 c 0.05 -0.13 0.12 -0.33 0.19 -0.6 h 0.02 l -0.06 1.2 v 4.18 h 0.73 v -6.22 h -0.91 l -1.95 4.31 c -0.08 0.17 -0.17 0.42 -0.3 0.76 h -0.03 c -0.05 -0.17 -0.14 -0.42 -0.28 -0.74 l -1.91 -4.34 h -0.96 v 6.22 h 0.7 v -4.16 H 98.43 z M 135.79 44.81 c -0.2 0.2 -0.45 0.3 -0.74 0.3 c -0.29 0 -0.54 -0.1 -0.74 -0.3 S 134 44.36 134 44.06 c 0 -0.29 0.1 -0.54 0.3 -0.74 c 0.2 -0.2 0.45 -0.3 0.75 -0.3 c 0.28 -0.01 0.54 0.1 0.74 0.3 s 0.31 0.47 0.3 0.75 C 136.1 44.37 135.99 44.62 135.79 44.81 M 135.06 42.9 c -0.32 -0.01 -0.62 0.11 -0.85 0.34 c -0.22 0.22 -0.35 0.52 -0.34 0.84 c 0 0.34 0.11 0.61 0.34 0.84 s 0.51 0.33 0.84 0.33 c 0.32 0.01 0.62 -0.11 0.85 -0.34 c 0.23 -0.23 0.34 -0.5 0.34 -0.84 s -0.11 -0.63 -0.34 -0.84 C 135.68 43.01 135.38 42.9 135.06 42.9 M 135.03 43.99 h -0.23 v -0.51 h 0.19 c 0.13 0 0.22 0.02 0.28 0.07 c 0.05 0.04 0.07 0.1 0.07 0.19 C 135.34 43.91 135.24 43.99 135.03 43.99 M 135.19 44.13 L 135.19 44.13 c 0.12 -0.03 0.22 -0.08 0.28 -0.15 c 0.07 -0.07 0.1 -0.17 0.1 -0.26 c 0 -0.11 -0.04 -0.21 -0.12 -0.28 c -0.1 -0.09 -0.24 -0.13 -0.43 -0.13 h -0.42 v 1.5 h 0.21 v -0.63 h 0.14 c 0.1 0 0.19 0.09 0.27 0.27 l 0.16 0.36 h 0.26 l -0.2 -0.4 C 135.36 44.24 135.27 44.15 135.19 44.13" stroke-linecap="round"/>
</g>
<g transform="matrix(2.7137 0 0 2.7137 885.5394 522.2388)" id="circles_12_">
<circle style="stroke: none; stroke-width: 0; stroke-dasharray: none; stroke-linecap: butt; stroke-dashoffset: 0; stroke-linejoin: miter; stroke-miterlimit: 4; is-custom-font: none; font-file-url: none; fill: rgb(123,192,203); fill-rule: nonzero; opacity: 1;" cx="0" cy="0" r="33.61"/>
</g>
<g transform="matrix(2.7137 0 0 2.7137 883.7354 524.9044)" id="jasperreports_1_">
<path style="stroke: none; stroke-width: 0; stroke-dasharray: none; stroke-linecap: butt; stroke-dashoffset: 0; stroke-linejoin: miter; stroke-miterlimit: 4; is-custom-font: none; font-file-url: none; fill: rgb(255,255,255); fill-rule: nonzero; opacity: 1;" transform=" translate(-298.5953, -138.2123)" d="M 311.24 122.29 c 3.59 0.6 6.16 3.66 6.34 7.24 c 0.17 3.45 -0.82 6.53 -2.67 9.33 c -5.34 8.11 -12.73 13.29 -22.36 15 c -2.63 0.47 -5.31 0.39 -7.86 -0.66 c -3.66 -1.5 -5.54 -4.78 -5.01 -8.97 c 2.33 4.02 6.06 4.04 9.71 3.25 c 9.08 -1.96 16.12 -7.04 21.18 -14.83 c 0.55 -0.84 0.95 -1.8 1.31 -2.74 c 1.02 -2.63 1.09 -5.18 -0.76 -7.53 L 311.24 122.29 z" stroke-linecap="round"/>
</g>
<g transform="matrix(2.7137 0 0 2.7137 874.0118 510.1456)" id="jasperreports_1_">
<path style="stroke: none; stroke-width: 0; stroke-dasharray: none; stroke-linecap: butt; stroke-dashoffset: 0; stroke-linejoin: miter; stroke-miterlimit: 4; is-custom-font: none; font-file-url: none; fill: rgb(255,255,255); fill-rule: nonzero; opacity: 1;" transform=" translate(-295.0121, -132.7737)" d="M 307.55 129.29 c -1.16 -1.89 -2.98 -1.76 -4.65 -1.31 c -6.36 1.7 -11.45 5.28 -15.1 10.78 c -0.95 1.43 -1.63 3.03 -0.25 4.69 c -4.13 0.29 -6.37 -2.29 -5.43 -6.23 c 0.58 -2.41 1.91 -4.43 3.55 -6.24 c 3.99 -4.41 8.75 -7.58 14.69 -8.72 c 0.85 -0.16 1.73 -0.2 2.6 -0.18 C 307.22 122.19 309.17 125.19 307.55 129.29 z" stroke-linecap="round"/>
</g>
<g transform="matrix(2.7137 0 0 2.7137 917.5891 481.654)" id="jasperreports_1_">
<path style="stroke: none; stroke-width: 0; stroke-dasharray: none; stroke-linecap: butt; stroke-dashoffset: 0; stroke-linejoin: miter; stroke-miterlimit: 4; is-custom-font: none; font-file-url: none; fill: rgb(255,255,255); fill-rule: nonzero; opacity: 1;" transform=" translate(-311.0704, -122.2745)" d="M 311.14 122.39 c -0.08 -0.05 -0.15 -0.1 -0.23 -0.14 c 0.04 -0.03 0.09 -0.1 0.1 -0.09 c 0.08 0.04 0.15 0.09 0.22 0.14 C 311.24 122.29 311.14 122.39 311.14 122.39 z" stroke-linecap="round"/>
</g>
<g transform="matrix(2.7137 0 0 2.7137 330.8521 669.01)" id="Aspose.CAD">
<path style="stroke: none; stroke-width: 0; stroke-dasharray: none; stroke-linecap: butt; stroke-dashoffset: 0; stroke-linejoin: miter; stroke-miterlimit: 4; is-custom-font: none; font-file-url: none; fill: rgb(65,152,211); fill-rule: nonzero; opacity: 1;" transform=" translate(-69.63, -189.885)" d="M 74.46 173.19 c -3.67 0 -6.54 1.5 -8.59 4.51 c -2.06 3.01 -3.09 7.16 -3.09 12.44 c 0 10.99 4.18 16.48 12.54 16.48 c 2.53 0 4.97 -0.35 7.34 -1.05 c 2.37 -0.7 4.75 -1.55 7.15 -2.54 v 13.05 c -4.77 2.11 -10.16 3.16 -16.17 3.16 c -8.62 0 -15.23 -2.5 -19.82 -7.5 c -4.6 -5 -6.89 -12.23 -6.89 -21.68 c 0 -5.91 1.11 -11.11 3.34 -15.59 c 2.23 -4.48 5.43 -7.92 9.61 -10.33 c 4.18 -2.41 9.09 -3.61 14.75 -3.61 c 6.17 0 12.07 1.34 17.7 4.02 l -4.73 12.15 c -2.11 -0.99 -4.22 -1.82 -6.33 -2.5 C 79.15 173.53 76.88 173.19 74.46 173.19 z" stroke-linecap="round"/>
</g>
<g transform="matrix(2.7137 0 0 2.7137 451.164 695.2379)" id="Aspose.CAD">
<path style="stroke: none; stroke-width: 0; stroke-dasharray: none; stroke-linecap: butt; stroke-dashoffset: 0; stroke-linejoin: miter; stroke-miterlimit: 4; is-custom-font: none; font-file-url: none; fill: rgb(65,152,211); fill-rule: nonzero; opacity: 1;" transform=" translate(-113.965, -199.55)" d="M 123.72 218.71 l -2.02 -5.2 h -0.27 c -1.75 2.21 -3.56 3.74 -5.42 4.6 c -1.86 0.85 -4.28 1.28 -7.26 1.28 c -3.67 0 -6.56 -1.05 -8.66 -3.14 c -2.11 -2.1 -3.16 -5.08 -3.16 -8.96 c 0 -4.06 1.42 -7.05 4.26 -8.97 c 2.84 -1.92 7.11 -2.99 12.83 -3.2 l 6.63 -0.21 v -1.67 c 0 -3.87 -1.98 -5.81 -5.95 -5.81 c -3.05 0 -6.64 0.92 -10.77 2.77 l -3.45 -7.04 c 4.4 -2.3 9.27 -3.45 14.63 -3.45 c 5.13 0 9.06 1.12 11.79 3.35 c 2.73 2.23 4.1 5.63 4.1 10.19 v 25.46 H 123.72 z M 120.64 201 l -4.03 0.14 c -3.03 0.09 -5.29 0.64 -6.77 1.64 c -1.48 1 -2.22 2.53 -2.22 4.58 c 0 2.94 1.69 4.41 5.06 4.41 c 2.42 0 4.35 -0.69 5.79 -2.08 c 1.45 -1.39 2.17 -3.24 2.17 -5.54 V 201 z" stroke-linecap="round"/>
</g>
<g transform="matrix(2.7137 0 0 2.7137 717.0659 745.9569)" id="CAD">
<polygon style="stroke: none; stroke-width: 0; stroke-dasharray: none; stroke-linecap: butt; stroke-dashoffset: 0; stroke-linejoin: miter; stroke-miterlimit: 4; is-custom-font: none; font-file-url: none; fill: rgb(87,87,86); fill-rule: nonzero; opacity: 1;" points="1.14,1.14 -1.14,1.14 -1.14,-0.57 -0.57,-0.57 -0.57,-1.14 1.14,-1.14 "/>
</g>
<g transform="matrix(2.7137 0 0 2.7137 649.0334 746.7303)" id="CAD">
<path style="stroke: none; stroke-width: 0; stroke-dasharray: none; stroke-linecap: butt; stroke-dashoffset: 0; stroke-linejoin: miter; stroke-miterlimit: 4; is-custom-font: none; font-file-url: none; fill: rgb(87,87,86); fill-rule: nonzero; opacity: 1;" transform=" translate(-186.88, -218.525)" d="M 209.7 219.38 h -2.78 v -1.71 h 2.78 V 219.38 z M 205.8 219.38 h -2.78 v -1.71 h 2.78 V 219.38 z M 201.91 219.38 h -2.78 v -1.71 h 2.78 V 219.38 z M 198.01 219.38 h -2.78 v -1.71 h 2.78 V 219.38 z M 194.11 219.38 h -2.78 v -1.71 h 2.78 V 219.38 z M 190.22 219.38 h -2.78 v -1.71 h 2.78 V 219.38 z M 186.32 219.38 h -2.78 v -1.71 h 2.78 V 219.38 z M 182.43 219.38 h -2.78 v -1.71 h 2.78 V 219.38 z M 178.53 219.38 h -2.78 v -1.71 h 2.78 V 219.38 z M 174.63 219.38 h -2.78 v -1.71 h 2.78 V 219.38 z M 170.74 219.38 h -2.78 v -1.71 h 2.78 V 219.38 z M 166.84 219.38 h -2.78 v -1.71 h 2.78 V 219.38 z" stroke-linecap="round"/>
</g>
<g transform="matrix(2.7137 0 0 2.7137 581.0009 745.9569)" id="CAD">
<polygon style="stroke: none; stroke-width: 0; stroke-dasharray: none; stroke-linecap: butt; stroke-dashoffset: 0; stroke-linejoin: miter; stroke-miterlimit: 4; is-custom-font: none; font-file-url: none; fill: rgb(87,87,86); fill-rule: nonzero; opacity: 1;" points="1.14,1.14 -1.14,1.14 -1.14,-1.14 0.57,-1.14 0.57,-0.57 1.14,-0.57 "/>
</g>
<g transform="matrix(2.7137 0 0 2.7137 580.2275 716.5811)" id="CAD">
<path style="stroke: none; stroke-width: 0; stroke-dasharray: none; stroke-linecap: butt; stroke-dashoffset: 0; stroke-linejoin: miter; stroke-miterlimit: 4; is-custom-font: none; font-file-url: none; fill: rgb(87,87,86); fill-rule: nonzero; opacity: 1;" transform=" translate(-161.525, -207.415)" d="M 162.38 216.05 h -1.71 v -2.62 h 1.71 V 216.05 z M 162.38 212.39 h -1.71 v -2.62 h 1.71 V 212.39 z M 162.38 208.73 h -1.71 v -2.62 h 1.71 V 208.73 z M 162.38 205.06 h -1.71 v -2.62 h 1.71 V 205.06 z M 162.38 201.4 h -1.71 v -2.62 h 1.71 V 201.4 z" stroke-linecap="round"/>
</g>
<g transform="matrix(2.7137 0 0 2.7137 581.2587 686.2013)" id="CAD">
<polygon style="stroke: none; stroke-width: 0; stroke-dasharray: none; stroke-linecap: butt; stroke-dashoffset: 0; stroke-linejoin: miter; stroke-miterlimit: 4; is-custom-font: none; font-file-url: none; fill: rgb(87,87,86); fill-rule: nonzero; opacity: 1;" points="0.475,1.52 -1.235,1.52 -1.235,-0.27 0.025,-1.52 1.235,-0.3 0.475,0.45 "/>
</g>
<g transform="matrix(2.7137 0 0 2.7137 647.2152 653.7319)" id="CAD">
<path style="stroke: none; stroke-width: 0; stroke-dasharray: none; stroke-linecap: butt; stroke-dashoffset: 0; stroke-linejoin: miter; stroke-miterlimit: 4; is-custom-font: none; font-file-url: none; fill: rgb(87,87,86); fill-rule: nonzero; opacity: 1;" transform=" translate(-186.21, -184.255)" d="M 163.95 195.12 l -1.2 -1.22 l 2.02 -2 l 1.2 1.22 L 163.95 195.12 z M 166.78 192.31 l -1.2 -1.22 l 2.02 -2 l 1.2 1.22 L 166.78 192.31 z M 169.61 189.51 l -1.2 -1.22 l 2.02 -2 l 1.2 1.22 L 169.61 189.51 z M 172.45 186.71 l -1.2 -1.22 l 2.02 -2 l 1.2 1.22 L 172.45 186.71 z M 175.28 183.91 l -1.2 -1.22 l 2.02 -2 l 1.2 1.21 L 175.28 183.91 z M 178.12 181.1 l -1.2 -1.21 l 2.02 -2 l 1.2 1.21 L 178.12 181.1 z M 180.95 178.3 l -1.2 -1.21 l 2.02 -2 l 1.2 1.21 L 180.95 178.3 z M 183.78 175.5 l -1.2 -1.21 l 0.9 -0.89 h 2.28 v 1.71 h -1.58 L 183.78 175.5 z M 209.67 175.1 h -2.85 v -1.71 h 2.85 V 175.1 z M 205.69 175.1 h -2.85 v -1.71 h 2.85 V 175.1 z M 201.7 175.1 h -2.85 v -1.71 h 2.85 V 175.1 z M 197.72 175.1 h -2.85 v -1.71 h 2.85 V 175.1 z M 193.73 175.1 h -2.85 v -1.71 h 2.85 V 175.1 z M 189.74 175.1 h -2.85 v -1.71 h 2.85 V 175.1 z" stroke-linecap="round"/>
</g>
<g transform="matrix(2.7137 0 0 2.7137 717.0659 627.3411)" id="CAD">
<polygon style="stroke: none; stroke-width: 0; stroke-dasharray: none; stroke-linecap: butt; stroke-dashoffset: 0; stroke-linejoin: miter; stroke-miterlimit: 4; is-custom-font: none; font-file-url: none; fill: rgb(87,87,86); fill-rule: nonzero; opacity: 1;" points="1.14,1.14 -0.57,1.14 -0.57,0.57 -1.14,0.57 -1.14,-1.14 1.14,-1.14 "/>
</g>
<g transform="matrix(2.7137 0 0 2.7137 717.8393 686.6355)" id="CAD">
<path style="stroke: none; stroke-width: 0; stroke-dasharray: none; stroke-linecap: butt; stroke-dashoffset: 0; stroke-linejoin: miter; stroke-miterlimit: 4; is-custom-font: none; font-file-url: none; fill: rgb(87,87,86); fill-rule: nonzero; opacity: 1;" transform=" translate(-212.235, -196.38)" d="M 213.09 215.95 h -1.71 v -2.88 h 1.71 V 215.95 z M 213.09 211.92 h -1.71 v -2.88 h 1.71 V 211.92 z M 213.09 207.89 h -1.71 v -2.88 h 1.71 V 207.89 z M 213.09 203.86 h -1.71 v -2.88 h 1.71 V 203.86 z M 213.09 199.84 h -1.71 v -2.88 h 1.71 V 199.84 z M 213.09 195.81 h -1.71 v -2.88 h 1.71 V 195.81 z M 213.09 191.78 h -1.71 v -2.88 h 1.71 V 191.78 z M 213.09 187.75 h -1.71 v -2.88 h 1.71 V 187.75 z M 213.09 183.72 h -1.71 v -2.88 h 1.71 V 183.72 z M 213.09 179.69 h -1.71 v -2.88 h 1.71 V 179.69 z" stroke-linecap="round"/>
</g>
<g transform="matrix(2.7137 0 0 2.7137 681.1636 686.649)" id="CAD">
<path style="stroke: none; stroke-width: 0; stroke-dasharray: none; stroke-linecap: butt; stroke-dashoffset: 0; stroke-linejoin: miter; stroke-miterlimit: 4; is-custom-font: none; font-file-url: none; fill: rgb(87,87,86); fill-rule: nonzero; opacity: 1;" transform=" translate(-198.72, -196.385)" d="M 203.76 201.64 h -10.08 c -0.47 0 -0.85 -0.38 -0.85 -0.85 v -8.81 c 0 -0.47 0.38 -0.85 0.85 -0.85 h 10.08 c 0.47 0 0.85 0.38 0.85 0.85 v 8.81 C 204.61 201.26 204.23 201.64 203.76 201.64 z M 194.53 199.93 h 8.38 v -7.1 h -8.38 V 199.93 z" stroke-linecap="round"/>
</g>
<g transform="matrix(2.7137 0 0 2.7137 681.15 686.6355)" id="CAD">
<rect style="stroke: none; stroke-width: 0; stroke-dasharray: none; stroke-linecap: butt; stroke-dashoffset: 0; stroke-linejoin: miter; stroke-miterlimit: 4; is-custom-font: none; font-file-url: none; fill: rgb(87,87,86); fill-rule: nonzero; opacity: 1;" x="-0.585" y="-0.51" rx="0" ry="0" width="1.17" height="1.02"/>
</g>
<g transform="matrix(2.7137 0 0 2.7137 681.1501 686.6355)" id="CAD">
<path style="stroke: none; stroke-width: 0; stroke-dasharray: none; stroke-linecap: butt; stroke-dashoffset: 0; stroke-linejoin: miter; stroke-miterlimit: 4; is-custom-font: none; font-file-url: none; fill: rgb(87,87,86); fill-rule: nonzero; opacity: 1;" transform=" translate(-198.715, -196.38)" d="M 199.3 196.99 h -1.17 c -0.05 0 -0.1 -0.04 -0.1 -0.1 v -1.02 c 0 -0.05 0.04 -0.1 0.1 -0.1 h 1.17 c 0.05 0 0.1 0.04 0.1 0.1 v 1.02 C 199.4 196.95 199.36 196.99 199.3 196.99 z M 198.23 196.79 h 0.97 v -0.82 h -0.97 V 196.79 z" stroke-linecap="round"/>
</g>
<g transform="matrix(2.7137 0 0 2.7137 616.4826 656.0385)" id="CAD">
<path style="stroke: none; stroke-width: 0; stroke-dasharray: none; stroke-linecap: butt; stroke-dashoffset: 0; stroke-linejoin: miter; stroke-miterlimit: 4; is-custom-font: none; font-file-url: none; fill: rgb(87,87,86); fill-rule: nonzero; opacity: 1;" transform=" translate(-174.885, -185.105)" d="M 157.17 202.65 v -35.09 h 35.43 L 157.17 202.65 z M 160.02 170.4 v 25.41 l 25.66 -25.41 H 160.02 z" stroke-linecap="round"/>
</g>
<g transform="matrix(2.7137 0 0 2.7137 603.4975 647.8024)" id="CAD">
<path style="stroke: none; stroke-width: 0; stroke-dasharray: none; stroke-linecap: butt; stroke-dashoffset: 0; stroke-linejoin: miter; stroke-miterlimit: 4; is-custom-font: none; font-file-url: none; fill: rgb(87,87,86); fill-rule: nonzero; opacity: 1;" transform=" translate(-170.1, -182.07)" d="M 163.74 188.37 v -12.6 h 12.72 L 163.74 188.37 z M 165.45 177.48 v 6.79 l 6.86 -6.79 H 165.45 z" stroke-linecap="round"/>
</g>
<g transform="matrix(2.7137 0 0 2.7137 588.5453 616.0657)" id="CAD">
<path style="stroke: none; stroke-width: 0; stroke-dasharray: none; stroke-linecap: butt; stroke-dashoffset: 0; stroke-linejoin: miter; stroke-miterlimit: 4; is-custom-font: none; font-file-url: none; fill: rgb(87,87,86); fill-rule: nonzero; opacity: 1;" transform=" translate(-164.5901, -170.375)" d="M 164.59 172.76 c -0.47 0 -0.85 -0.38 -0.85 -0.85 v -3.07 c 0 -0.47 0.38 -0.85 0.85 -0.85 s 0.85 0.38 0.85 0.85 v 3.07 C 165.45 172.37 165.06 172.76 164.59 172.76 z" stroke-linecap="round"/>
</g>
<g transform="matrix(2.7137 0 0 2.7137 608.7621 615.4415)" id="CAD">
<path style="stroke: none; stroke-width: 0; stroke-dasharray: none; stroke-linecap: butt; stroke-dashoffset: 0; stroke-linejoin: miter; stroke-miterlimit: 4; is-custom-font: none; font-file-url: none; fill: rgb(87,87,86); fill-rule: nonzero; opacity: 1;" transform=" translate(-172.04, -170.145)" d="M 172.04 172.03 c -0.31 0 -0.57 -0.25 -0.57 -0.57 v -2.63 c 0 -0.31 0.26 -0.57 0.57 -0.57 s 0.57 0.25 0.57 0.57 v 2.63 C 172.61 171.78 172.36 172.03 172.04 172.03 z" stroke-linecap="round"/>
</g>
<g transform="matrix(2.7137 0 0 2.7137 619.4812 614.8581)" id="CAD">
<path style="stroke: none; stroke-width: 0; stroke-dasharray: none; stroke-linecap: butt; stroke-dashoffset: 0; stroke-linejoin: miter; stroke-miterlimit: 4; is-custom-font: none; font-file-url: none; fill: rgb(87,87,86); fill-rule: nonzero; opacity: 1;" transform=" translate(-175.99, -169.93)" d="M 175.99 171.44 c -0.47 0 -0.85 -0.38 -0.85 -0.85 v -1.32 c 0 -0.47 0.38 -0.85 0.85 -0.85 c 0.47 0 0.85 0.38 0.85 0.85 v 1.32 C 176.84 171.06 176.46 171.44 175.99 171.44 z" stroke-linecap="round"/>
</g>
<g transform="matrix(2.7137 0 0 2.7137 630.2003 614.8582)" id="CAD">
<path style="stroke: none; stroke-width: 0; stroke-dasharray: none; stroke-linecap: butt; stroke-dashoffset: 0; stroke-linejoin: miter; stroke-miterlimit: 4; is-custom-font: none; font-file-url: none; fill: rgb(87,87,86); fill-rule: nonzero; opacity: 1;" transform=" translate(-179.94, -169.93)" d="M 179.94 171.16 c -0.31 0 -0.57 -0.25 -0.57 -0.57 v -1.32 c 0 -0.31 0.26 -0.57 0.57 -0.57 c 0.31 0 0.57 0.25 0.57 0.57 v 1.32 C 180.51 170.9 180.25 171.16 179.94 171.16 z" stroke-linecap="round"/>
</g>
<g transform="matrix(2.7137 0 0 2.7137 598.0701 615.4687)" id="CAD">
<path style="stroke: none; stroke-width: 0; stroke-dasharray: none; stroke-linecap: butt; stroke-dashoffset: 0; stroke-linejoin: miter; stroke-miterlimit: 4; is-custom-font: none; font-file-url: none; fill: rgb(87,87,86); fill-rule: nonzero; opacity: 1;" transform=" translate(-168.1, -170.155)" d="M 168.1 171.6 c -0.31 0 -0.57 -0.25 -0.57 -0.57 v -1.75 c 0 -0.31 0.26 -0.57 0.57 -0.57 s 0.57 0.25 0.57 0.57 v 1.75 C 168.67 171.34 168.41 171.6 168.1 171.6 z" stroke-linecap="round"/>
</g>
<g transform="matrix(2.7137 0 0 2.7137 681.1636 650.6518)" id="CAD">
<path style="stroke: none; stroke-width: 0; stroke-dasharray: none; stroke-linecap: butt; stroke-dashoffset: 0; stroke-linejoin: miter; stroke-miterlimit: 4; is-custom-font: none; font-file-url: none; fill: rgb(87,87,86); fill-rule: nonzero; opacity: 1;" transform=" translate(-198.72, -183.12)" d="M 198.72 192.84 c -0.47 0 -0.85 -0.38 -0.85 -0.85 v -17.74 c 0 -0.47 0.38 -0.85 0.85 -0.85 s 0.85 0.38 0.85 0.85 v 17.74 C 199.57 192.45 199.19 192.84 198.72 192.84 z" stroke-linecap="round"/>
</g>
<g transform="matrix(2.7137 0 0 2.7137 681.1636 722.6192)" id="CAD">
<path style="stroke: none; stroke-width: 0; stroke-dasharray: none; stroke-linecap: butt; stroke-dashoffset: 0; stroke-linejoin: miter; stroke-miterlimit: 4; is-custom-font: none; font-file-url: none; fill: rgb(87,87,86); fill-rule: nonzero; opacity: 1;" transform=" translate(-198.72, -209.64)" d="M 198.72 219.14 c -0.47 0 -0.85 -0.38 -0.85 -0.85 v -17.3 c 0 -0.47 0.38 -0.85 0.85 -0.85 s 0.85 0.38 0.85 0.85 v 17.3 C 199.57 218.76 199.19 219.14 198.72 219.14 z" stroke-linecap="round"/>
</g>
<g transform="matrix(2.7137 0 0 2.7137 623.8369 686.6626)" id="CAD">
<path style="stroke: none; stroke-width: 0; stroke-dasharray: none; stroke-linecap: butt; stroke-dashoffset: 0; stroke-linejoin: miter; stroke-miterlimit: 4; is-custom-font: none; font-file-url: none; fill: rgb(87,87,86); fill-rule: nonzero; opacity: 1;" transform=" translate(-177.5951, -196.39)" d="M 193.67 197.24 h -32.15 c -0.47 0 -0.85 -0.38 -0.85 -0.85 c 0 -0.47 0.38 -0.85 0.85 -0.85 h 32.15 c 0.47 0 0.85 0.38 0.85 0.85 C 194.53 196.86 194.15 197.24 193.67 197.24 z" stroke-linecap="round"/>
</g>
<g transform="matrix(2.7137 0 0 2.7137 706.3467 686.6626)" id="CAD">
<path style="stroke: none; stroke-width: 0; stroke-dasharray: none; stroke-linecap: butt; stroke-dashoffset: 0; stroke-linejoin: miter; stroke-miterlimit: 4; is-custom-font: none; font-file-url: none; fill: rgb(87,87,86); fill-rule: nonzero; opacity: 1;" transform=" translate(-208, -196.39)" d="M 212.24 197.24 h -8.48 c -0.47 0 -0.85 -0.38 -0.85 -0.85 c 0 -0.47 0.38 -0.85 0.85 -0.85 h 8.48 c 0.47 0 0.85 0.38 0.85 0.85 C 213.09 196.86 212.71 197.24 212.24 197.24 z" stroke-linecap="round"/>
</g>
<g transform="matrix(2.7137 0 0 2.7137 630.5803 716.6897)" id="CAD">
<polygon style="stroke: none; stroke-width: 0; stroke-dasharray: none; stroke-linecap: butt; stroke-dashoffset: 0; stroke-linejoin: miter; stroke-miterlimit: 4; is-custom-font: none; font-file-url: none; fill: rgb(87,87,86); fill-rule: nonzero; opacity: 0.5;" points="18.56,11.075 -18.56,11.075 -18.56,-11.075 13.59,-11.075 13.59,-6.905 18.56,-6.665 "/>
</g>
<g transform="matrix(2.7137 0 0 2.7137 630.5803 716.6762)" id="CAD">
<path style="stroke: none; stroke-width: 0; stroke-dasharray: none; stroke-linecap: butt; stroke-dashoffset: 0; stroke-linejoin: miter; stroke-miterlimit: 4; is-custom-font: none; font-file-url: none; fill: rgb(87,87,86); fill-rule: nonzero; opacity: 0.5;" transform=" translate(-180.08, -207.45)" d="M 198.64 219.09 h -37.12 c -0.31 0 -0.57 -0.25 -0.57 -0.57 v -22.14 c 0 -0.31 0.26 -0.57 0.57 -0.57 h 32.15 c 0.31 0 0.57 0.25 0.57 0.57 l 0 3.62 l 4.43 0.21 c 0.3 0.01 0.54 0.26 0.54 0.57 v 17.74 C 199.21 218.84 198.96 219.09 198.64 219.09 z M 162.09 217.96 h 35.98 v -16.63 l -4.43 -0.21 c -0.3 -0.01 -0.54 -0.26 -0.54 -0.57 l 0 -3.6 h -31.01 V 217.96 z" stroke-linecap="round"/>
</g>
<g transform="matrix(3.526 0 0 3.526 179.1268 599.5601)" id="796234">
<line style="stroke: rgb(238,238,238); stroke-width: 3; stroke-dasharray: 6.5303 8.7071; stroke-linecap: round; stroke-dashoffset: 0; stroke-linejoin: round; stroke-miterlimit: 4; is-custom-font: none; font-file-url: none; fill: none; fill-rule: nonzero; opacity: 1;" x1="13.059999999999999" y1="0" x2="-13.059999999999999" y2="0"/>
</g>
<g transform="matrix(3.7651 0 0 3.7651 132.5764 531.3167)" id="140233">
<line style="stroke: rgb(238,238,238); stroke-width: 3; stroke-dasharray: 5.6936 7.5915; stroke-linecap: round; stroke-dashoffset: 0; stroke-linejoin: round; stroke-miterlimit: 4; is-custom-font: none; font-file-url: none; fill: none; fill-rule: nonzero; opacity: 1;" x1="0" y1="-18.03" x2="0" y2="18.03"/>
</g>
<g transform="matrix(0.0677 0 0 0.0677 129.3119 288.0423)" id="164141">
<g style="" vector-effect="non-scaling-stroke">
		<g transform="matrix(17.6048 0 0 17.6048 -0.0024 4.1732)">
<path style="stroke: none; stroke-width: 1; stroke-dasharray: none; stroke-linecap: butt; stroke-dashoffset: 0; stroke-linejoin: miter; stroke-miterlimit: 4; is-custom-font: none; font-file-url: none; fill: rgb(233,202,50); fill-rule: nonzero; opacity: 1;" transform=" translate(-62, -70.766)" d="M 10.383 126.894 L 0 0 l 124 0.255 l -10.979 126.639 l -50.553 14.638 z" stroke-linecap="round"/>
</g>
		<g transform="matrix(17.6048 0 0 17.6048 457.7248 2.6773)">
<path style="stroke: none; stroke-width: 1; stroke-dasharray: none; stroke-linecap: butt; stroke-dashoffset: 0; stroke-linejoin: miter; stroke-miterlimit: 4; is-custom-font: none; font-file-url: none; fill: rgb(255,222,37); fill-rule: nonzero; opacity: 1;" transform=" translate(-88, -70.681)" d="M 62.468 129.277 V 12.085 l 51.064 0.17 l -9.106 104.851 z" stroke-linecap="round"/>
</g>
		<g transform="matrix(17.6048 0 0 17.6048 8.8008 65.5094)">
<path style="stroke: none; stroke-width: 1; stroke-dasharray: none; stroke-linecap: butt; stroke-dashoffset: 0; stroke-linejoin: miter; stroke-miterlimit: 4; is-custom-font: none; font-file-url: none; fill: rgb(255,255,255); fill-rule: nonzero; opacity: 1;" transform=" translate(-62.5, -74.25)" d="M 57 26 H 43.5 v 78 L 33 102 V 91.5 l -12.5 -2 V 113 l 36.5 9.5 z M 67.127 26 H 104.5 L 102 40.95 H 81.394 v 24.533 H 102 L 99.5 115 l -32.373 7.5 V 107 L 89 99.5 L 90.263 79 l -23.136 3.35 z" stroke-linecap="round"/>
</g>
</g>
</g>
<g transform="matrix(2.7989 0 0 2.7989 133.9349 427.3059)" id="442481">
<line style="stroke: rgb(238,238,238); stroke-width: 3; stroke-dasharray: 5.6936 7.5915; stroke-linecap: round; stroke-dashoffset: 0; stroke-linejoin: round; stroke-miterlimit: 4; is-custom-font: none; font-file-url: none; fill: none; fill-rule: nonzero; opacity: 1;" x1="0" y1="-18.03" x2="0" y2="18.03"/>
</g>
</svg>